<svg width="335" height="189" viewBox="0 0 335 189" fill="none" xmlns="http://www.w3.org/2000/svg">
<g clip-path="url(#clip0_4_179)">
<mask id="mask0_4_179" style="mask-type:alpha" maskUnits="userSpaceOnUse" x="0" y="20" width="335" height="146">
<rect y="20.0409" width="334.887" height="145.805" fill="url(#paint0_linear_4_179)"/>
</mask>
<g mask="url(#mask0_4_179)">
<path d="M292.914 39.1903L273.986 32.8673L196.032 33.1113L182.538 28.2637L171.12 33.0067L122.331 32.8731L102.999 24.0086H74.8891L70.5411 32.8702H46.0418L0 106.191L51.2525 164.042H283.745L334.997 106.191L292.911 39.1874L292.914 39.1903ZM282.562 161.42H52.4346L3.27045 105.924L47.497 35.4929H72.1822L76.5273 26.6314H102.427L121.753 35.4929L171.64 35.6294L182.605 31.0723L195.576 35.734L273.561 35.49L291.189 41.3774L331.727 105.918L282.562 161.414V161.42Z" fill="url(#paint1_linear_4_179)"/>
</g>
<path d="M331.729 105.923L282.562 161.416H52.4345L3.27039 105.923L47.4969 35.4927H72.1821L76.5272 26.6311H102.426L121.756 35.4927L171.64 35.6321L182.605 31.075L195.576 35.7367L273.561 35.4927L291.189 41.383L331.729 105.923Z" fill="url(#paint2_linear_4_179)"/>
<path d="M331.723 105.923L291.191 41.3829L273.558 35.4955L195.578 35.7337L182.607 31.072L171.637 35.6291L121.752 35.4955L102.426 26.6339H76.5294L72.1843 35.4955H47.502L3.27258 105.923H32.8489L55.1408 122.493H91.2435L96.6488 105.923H120.068L125.45 82.4784H130.791L138.006 79.3358L136.492 95.2465L156.44 105.923H331.723Z" fill="#4D06E6" fill-opacity="0.58"/>
<path d="M18.9343 97.2653H44.1307L48.4613 88.9585H37.2877L45.1937 75.0983L58.1477 70.3814L62.2401 62.5393L49.9106 66.8292L56.4718 55.3246L52.606 49.4837H59.8062H69.0482L71.8278 44.1539H52.2894L18.9343 97.2653Z" fill="white"/>
<path d="M81.9296 35.2892L67.3026 65.1356L85.0374 75.6614L91.9965 79.2572L81.4649 84.9761L74.0323 104.346H62.1036L74.8601 74.8569L65.3305 69.1583L47.314 105.915L57.9996 113.835H84.9618L98.3196 72.8702L80.0649 62.8236L89.8908 40.1106H98.6739L104.651 42.623L96.1964 46.5702L90.4252 61.6183L100.263 66.9044L109.255 39.3264L100.524 35.2892H81.9296Z" fill="white"/>
<path d="M114.811 44.1534L99.5569 97.2647H113.17L118.555 73.8197H128.988L141.948 68.1763L144.35 48.6756L134.347 44.1534H114.808H114.811ZM132.305 55.4779L130.214 67.0523H120.112L124.146 49.4802H133.388L140.208 52.2539L132.305 55.475V55.4779Z" fill="white"/>
<path d="M150.049 44.1534L145.657 90.3317L158.611 97.2647H183.807L180.458 48.6756L169.59 44.1534H150.051H150.049ZM169.773 60.494L170.098 88.955H158.925L160.409 49.4802H169.651L176.752 52.2539L169.776 60.494H169.773Z" fill="white"/>
<path d="M187.908 48.696L193.18 97.2647H206.793L202.898 73.8197H213.331L218.374 97.2647H231.99L225.882 74.8566L217.868 71.4642L224.061 68.1763L217.511 44.1534H197.972L187.908 48.696V48.696ZM211.879 67.0523H201.777L199.866 55.5389L191.983 52.2569L198.858 49.4831H208.1L211.879 67.0552V67.0523Z" fill="white"/>
<path d="M222.562 49.4831H231.661L247.9 97.2647H261.517L244.822 55.2543L235.286 49.4192H251.458L249.117 44.1534H221.008L222.562 49.4831Z" fill="white"/>
<path d="M296.998 66.9042L285.51 48.6146L272.15 44.1534H252.611L262.347 65.1353L290.123 75.6612L297.709 88.9579H286.533L279.182 74.8566L264.212 69.158L274.035 90.3317L290.866 97.2647H316.063L300.741 72.87L272.905 62.8234L269.004 55.3414L258.754 49.4831H275.191L282.112 61.618L296.998 66.9042Z" fill="white"/>
<path d="M183.063 37.7896C181.637 39.1808 180.022 40.4704 178.247 41.6409C180.187 42.823 182.032 44.1707 183.754 45.6607C185.215 44.1707 186.824 42.823 188.555 41.6409C186.574 40.4704 184.733 39.1808 183.063 37.7896Z" fill="#1BBFE3"/>
<path d="M34.2878 90.7007L42.4639 76.3642C39.4316 76.7098 36.4255 77.0642 33.4455 77.433L22.0861 95.5222H43.0738L45.5862 90.7007H34.2878V90.7007Z" fill="url(#paint3_linear_4_179)"/>
<path d="M92.909 71.8822C89.6618 72.0942 86.4349 72.3208 83.2283 72.5618L85.883 74.1361L94.6052 78.6409L96.2143 73.7004L92.909 71.8822V71.8822ZM82.8595 86.1984L75.2323 106.088H59.4522L72.656 75.568L69.4785 73.6685C67.9333 73.8021 66.3911 73.9386 64.8575 74.0809L49.5189 105.377L58.5751 112.092H83.696L94.1347 80.0786L82.8595 86.1984V86.1984Z" fill="url(#paint4_linear_4_179)"/>
<path d="M133.645 69.8927L128.629 72.0768H117.171L111.786 95.5218H101.873L108.934 70.9354C117.06 70.5084 125.3 70.1599 133.645 69.8927Z" fill="url(#paint5_linear_4_179)"/>
<path d="M181.94 95.5221H159.05L147.501 89.3442L149.392 69.4805C152.224 69.4224 155.065 69.3759 157.917 69.3382L157.115 90.7006H171.861L171.617 69.2249C172.921 69.222 174.228 69.2191 175.538 69.2191C177.072 69.2191 178.603 69.222 180.127 69.2278L181.94 95.5221V95.5221Z" fill="url(#paint6_linear_4_179)"/>
<path d="M229.71 95.5219H219.782L214.74 72.0769H200.842L204.737 95.5219H194.743L191.899 69.3206C200.404 69.4251 208.818 69.6139 217.131 69.8812L213.817 71.6413L224.424 76.1316L229.71 95.5219Z" fill="url(#paint7_linear_4_179)"/>
<path d="M249.336 71.3333C246.496 71.1677 243.641 71.0109 240.771 70.8656L249.15 95.5218H258.95L249.336 71.3333Z" fill="url(#paint8_linear_4_179)"/>
<path d="M300.313 75.461C297.4 75.156 294.466 74.8598 291.509 74.5751L300.711 90.7008H285.477L277.942 76.251L268.349 72.5972C268.134 72.5797 267.922 72.5652 267.707 72.5507L275.331 88.9813L291.21 95.5222H312.912L300.313 75.461V75.461Z" fill="url(#paint9_linear_4_179)"/>
<path d="M14.0785 30.474C17.9879 21.0315 25.8823 13.5903 37.5351 8.3593C48.6999 3.34616 62.8476 0.557858 79.5804 0.0757144C113.882 -0.914714 155.291 7.86263 196.172 24.7987C199.111 26.0156 202.025 27.2646 204.906 28.5454L200.831 28.5571C199.082 27.799 197.319 27.0525 195.542 26.3177C111.785 -8.37342 31.061 -6.22701 15.5975 31.1043C11.1188 41.9148 12.5972 54.5057 18.9929 67.785C34.6742 100.367 79.9463 137.083 139.453 161.73C145.21 164.115 150.973 166.334 156.726 168.388C191.635 180.854 226.114 187.171 255.368 186.326C271.886 185.849 285.819 183.11 296.786 178.187C308.047 173.133 315.654 165.985 319.398 156.944C322.776 148.785 322.764 139.613 319.804 129.894L321.068 128.468C324.536 139.18 324.489 148.959 320.92 157.574C317.007 167.017 309.116 174.458 297.46 179.689C286.295 184.702 272.15 187.49 255.418 187.972C253.669 188.022 251.903 188.048 250.12 188.048C220.631 188.048 186.378 181.173 151.916 168.388C147.551 166.77 143.186 165.056 138.823 163.249C97.9425 146.316 62.4555 123.246 38.9002 98.2878C29.6378 88.4736 22.6206 78.7901 17.9705 69.4115C16.8494 67.1547 15.8677 64.9183 15.0254 62.7021C10.4857 50.7618 10.1662 39.9194 14.0785 30.474V30.474Z" fill="url(#paint10_linear_4_179)"/>
<path d="M14.0785 30.474C17.9879 21.0315 25.8823 13.5903 37.5351 8.3593C48.6999 3.34616 62.8476 0.557858 79.5804 0.0757144C113.882 -0.914714 155.291 7.86263 196.172 24.7987C199.111 26.0156 202.025 27.2646 204.906 28.5454L200.831 28.5571C199.082 27.799 197.319 27.0525 195.542 26.3177C111.785 -8.37342 31.061 -6.22701 15.5975 31.1043C11.1188 41.9148 12.5972 54.5057 18.9929 67.785C34.6742 100.367 79.9463 137.083 139.453 161.73C145.21 164.115 150.973 166.334 156.726 168.388C191.635 180.854 226.114 187.171 255.368 186.326C271.886 185.849 285.819 183.11 296.786 178.187C308.047 173.133 315.654 165.985 319.398 156.944C322.776 148.785 322.764 139.613 319.804 129.894L321.068 128.468C324.536 139.18 324.489 148.959 320.92 157.574C317.007 167.017 309.116 174.458 297.46 179.689C286.295 184.702 272.15 187.49 255.418 187.972C253.669 188.022 251.903 188.048 250.12 188.048C220.631 188.048 186.378 181.173 151.916 168.388C147.551 166.77 143.186 165.056 138.823 163.249C97.9425 146.316 62.4555 123.246 38.9002 98.2878C29.6378 88.4736 22.6206 78.7901 17.9705 69.4115C16.8494 67.1547 15.8677 64.9183 15.0254 62.7021C10.4857 50.7618 10.1662 39.9194 14.0785 30.474V30.474Z" fill="url(#paint11_radial_4_179)"/>
<path d="M14.0785 30.474C17.9879 21.0315 25.8823 13.5903 37.5351 8.3593C48.6999 3.34616 62.8476 0.557858 79.5804 0.0757144C113.882 -0.914714 155.291 7.86263 196.172 24.7987C199.111 26.0156 202.025 27.2646 204.906 28.5454L200.831 28.5571C199.082 27.799 197.319 27.0525 195.542 26.3177C111.785 -8.37342 31.061 -6.22701 15.5975 31.1043C11.1188 41.9148 12.5972 54.5057 18.9929 67.785C34.6742 100.367 79.9463 137.083 139.453 161.73C145.21 164.115 150.973 166.334 156.726 168.388C191.635 180.854 226.114 187.171 255.368 186.326C271.886 185.849 285.819 183.11 296.786 178.187C308.047 173.133 315.654 165.985 319.398 156.944C322.776 148.785 322.764 139.613 319.804 129.894L321.068 128.468C324.536 139.18 324.489 148.959 320.92 157.574C317.007 167.017 309.116 174.458 297.46 179.689C286.295 184.702 272.15 187.49 255.418 187.972C253.669 188.022 251.903 188.048 250.12 188.048C220.631 188.048 186.378 181.173 151.916 168.388C147.551 166.77 143.186 165.056 138.823 163.249C97.9425 146.316 62.4555 123.246 38.9002 98.2878C29.6378 88.4736 22.6206 78.7901 17.9705 69.4115C16.8494 67.1547 15.8677 64.9183 15.0254 62.7021C10.4857 50.7618 10.1662 39.9194 14.0785 30.474V30.474Z" fill="url(#paint12_radial_4_179)"/>
<path d="M14.0785 30.474C17.9879 21.0315 25.8823 13.5903 37.5351 8.3593C48.6999 3.34616 62.8476 0.557858 79.5804 0.0757144C113.882 -0.914714 155.291 7.86263 196.172 24.7987C199.111 26.0156 202.025 27.2646 204.906 28.5454L200.831 28.5571C199.082 27.799 197.319 27.0525 195.542 26.3177C111.785 -8.37342 31.061 -6.22701 15.5975 31.1043C11.1188 41.9148 12.5972 54.5057 18.9929 67.785C34.6742 100.367 79.9463 137.083 139.453 161.73C145.21 164.115 150.973 166.334 156.726 168.388C191.635 180.854 226.114 187.171 255.368 186.326C271.886 185.849 285.819 183.11 296.786 178.187C308.047 173.133 315.654 165.985 319.398 156.944C322.776 148.785 322.764 139.613 319.804 129.894L321.068 128.468C324.536 139.18 324.489 148.959 320.92 157.574C317.007 167.017 309.116 174.458 297.46 179.689C286.295 184.702 272.15 187.49 255.418 187.972C253.669 188.022 251.903 188.048 250.12 188.048C220.631 188.048 186.378 181.173 151.916 168.388C147.551 166.77 143.186 165.056 138.823 163.249C97.9425 146.316 62.4555 123.246 38.9002 98.2878C29.6378 88.4736 22.6206 78.7901 17.9705 69.4115C16.8494 67.1547 15.8677 64.9183 15.0254 62.7021C10.4857 50.7618 10.1662 39.9194 14.0785 30.474V30.474Z" fill="url(#paint13_radial_4_179)"/>
<path d="M320.919 30.474C317.01 21.0315 309.115 13.5903 297.463 8.3593C286.298 3.34616 272.15 0.557858 255.417 0.0757144C221.116 -0.914714 179.706 7.86263 138.826 24.7987C135.886 26.0156 132.973 27.2646 130.092 28.5454L134.167 28.5571C135.915 27.799 137.678 27.0525 139.456 26.3177C223.213 -8.37342 303.937 -6.22701 319.4 31.1043C323.879 41.9148 322.401 54.5057 316.005 67.785C300.324 100.367 255.051 137.083 195.544 161.73C189.788 164.115 184.025 166.334 178.272 168.388C143.363 180.854 108.883 187.171 79.6295 186.326C63.1117 185.849 49.1789 183.11 38.2116 178.187C26.9509 173.133 19.3441 165.985 15.6002 156.944C12.2223 148.785 12.2339 139.613 15.1936 129.894L13.9301 128.468C10.4622 139.18 10.5087 148.959 14.0783 157.574C17.9906 167.017 25.8821 174.458 37.5378 179.689C48.7026 184.702 62.8474 187.49 79.5801 187.972C81.3286 188.022 83.0946 188.048 84.8779 188.048C114.367 188.048 148.62 181.173 183.081 168.388C187.447 166.77 191.812 165.056 196.175 163.249C237.055 146.316 272.542 123.246 296.098 98.2878C305.36 88.4736 312.377 78.7901 317.027 69.4115C318.148 67.1547 319.13 64.9183 319.972 62.7021C324.512 50.7618 324.832 39.9194 320.919 30.474V30.474Z" fill="url(#paint14_linear_4_179)"/>
<path d="M320.919 30.474C317.01 21.0315 309.115 13.5903 297.463 8.3593C286.298 3.34616 272.15 0.557858 255.417 0.0757144C221.116 -0.914714 179.706 7.86263 138.826 24.7987C135.886 26.0156 132.973 27.2646 130.092 28.5454L134.167 28.5571C135.915 27.799 137.678 27.0525 139.456 26.3177C223.213 -8.37342 303.937 -6.22701 319.4 31.1043C323.879 41.9148 322.401 54.5057 316.005 67.785C300.324 100.367 255.051 137.083 195.544 161.73C189.788 164.115 184.025 166.334 178.272 168.388C143.363 180.854 108.883 187.171 79.6295 186.326C63.1117 185.849 49.1789 183.11 38.2116 178.187C26.9509 173.133 19.3441 165.985 15.6002 156.944C12.2223 148.785 12.2339 139.613 15.1936 129.894L13.9301 128.468C10.4622 139.18 10.5087 148.959 14.0783 157.574C17.9906 167.017 25.8821 174.458 37.5378 179.689C48.7026 184.702 62.8474 187.49 79.5801 187.972C81.3286 188.022 83.0946 188.048 84.8779 188.048C114.367 188.048 148.62 181.173 183.081 168.388C187.447 166.77 191.812 165.056 196.175 163.249C237.055 146.316 272.542 123.246 296.098 98.2878C305.36 88.4736 312.377 78.7901 317.027 69.4115C318.148 67.1547 319.13 64.9183 319.972 62.7021C324.512 50.7618 324.832 39.9194 320.919 30.474V30.474Z" fill="url(#paint15_radial_4_179)"/>
<path d="M320.919 30.474C317.01 21.0315 309.115 13.5903 297.463 8.3593C286.298 3.34616 272.15 0.557858 255.417 0.0757144C221.116 -0.914714 179.706 7.86263 138.826 24.7987C135.886 26.0156 132.973 27.2646 130.092 28.5454L134.167 28.5571C135.915 27.799 137.678 27.0525 139.456 26.3177C223.213 -8.37342 303.937 -6.22701 319.4 31.1043C323.879 41.9148 322.401 54.5057 316.005 67.785C300.324 100.367 255.051 137.083 195.544 161.73C189.788 164.115 184.025 166.334 178.272 168.388C143.363 180.854 108.883 187.171 79.6295 186.326C63.1117 185.849 49.1789 183.11 38.2116 178.187C26.9509 173.133 19.3441 165.985 15.6002 156.944C12.2223 148.785 12.2339 139.613 15.1936 129.894L13.9301 128.468C10.4622 139.18 10.5087 148.959 14.0783 157.574C17.9906 167.017 25.8821 174.458 37.5378 179.689C48.7026 184.702 62.8474 187.49 79.5801 187.972C81.3286 188.022 83.0946 188.048 84.8779 188.048C114.367 188.048 148.62 181.173 183.081 168.388C187.447 166.77 191.812 165.056 196.175 163.249C237.055 146.316 272.542 123.246 296.098 98.2878C305.36 88.4736 312.377 78.7901 317.027 69.4115C318.148 67.1547 319.13 64.9183 319.972 62.7021C324.512 50.7618 324.832 39.9194 320.919 30.474V30.474Z" fill="url(#paint16_radial_4_179)"/>
</g>
<defs>
<linearGradient id="paint0_linear_4_179" x1="167.443" y1="87.8605" x2="167.443" y2="159.311" gradientUnits="userSpaceOnUse">
<stop stop-color="#D9D9D9"/>
<stop offset="1" stop-color="#D9D9D9" stop-opacity="0"/>
</linearGradient>
<linearGradient id="paint1_linear_4_179" x1="0" y1="94.024" x2="335" y2="94.024" gradientUnits="userSpaceOnUse">
<stop stop-color="#783EFF"/>
<stop offset="0.5" stop-color="#FA41FE"/>
<stop offset="1" stop-color="#42D3FF"/>
</linearGradient>
<linearGradient id="paint2_linear_4_179" x1="167.498" y1="108.023" x2="167.498" y2="160.037" gradientUnits="userSpaceOnUse">
<stop stop-color="#28203E"/>
<stop offset="1" stop-color="#121214" stop-opacity="0"/>
</linearGradient>
<linearGradient id="paint3_linear_4_179" x1="33.8376" y1="71.7112" x2="33.8376" y2="92.2081" gradientUnits="userSpaceOnUse">
<stop/>
<stop offset="1" stop-color="#A9A9AD" stop-opacity="0"/>
</linearGradient>
<linearGradient id="paint4_linear_4_179" x1="72.8681" y1="71.7108" x2="72.8681" y2="92.2078" gradientUnits="userSpaceOnUse">
<stop/>
<stop offset="1" stop-color="#A9A9AD" stop-opacity="0"/>
</linearGradient>
<linearGradient id="paint5_linear_4_179" x1="117.76" y1="71.7109" x2="117.76" y2="92.2078" gradientUnits="userSpaceOnUse">
<stop/>
<stop offset="1" stop-color="#A9A9AD" stop-opacity="0"/>
</linearGradient>
<linearGradient id="paint6_linear_4_179" x1="164.722" y1="71.7111" x2="164.722" y2="92.2081" gradientUnits="userSpaceOnUse">
<stop/>
<stop offset="1" stop-color="#A9A9AD" stop-opacity="0"/>
</linearGradient>
<linearGradient id="paint7_linear_4_179" x1="210.805" y1="71.711" x2="210.805" y2="92.2079" gradientUnits="userSpaceOnUse">
<stop/>
<stop offset="1" stop-color="#A9A9AD" stop-opacity="0"/>
</linearGradient>
<linearGradient id="paint8_linear_4_179" x1="249.862" y1="71.7108" x2="249.862" y2="92.2078" gradientUnits="userSpaceOnUse">
<stop/>
<stop offset="1" stop-color="#A9A9AD" stop-opacity="0"/>
</linearGradient>
<linearGradient id="paint9_linear_4_179" x1="290.31" y1="71.7113" x2="290.31" y2="92.2082" gradientUnits="userSpaceOnUse">
<stop/>
<stop offset="1" stop-color="#A9A9AD" stop-opacity="0"/>
</linearGradient>
<linearGradient id="paint10_linear_4_179" x1="303.954" y1="134.623" x2="77.6953" y2="135.785" gradientUnits="userSpaceOnUse">
<stop stop-color="#783EFF"/>
<stop offset="0.5" stop-color="#E317AA"/>
<stop offset="1" stop-color="#42D3FF"/>
</linearGradient>
<radialGradient id="paint11_radial_4_179" cx="0" cy="0" r="1" gradientUnits="userSpaceOnUse" gradientTransform="translate(165.433 171.843) rotate(15.7611) scale(152.097 252.569)">
<stop stop-color="#171226"/>
<stop offset="1" stop-color="#171226" stop-opacity="0"/>
</radialGradient>
<radialGradient id="paint12_radial_4_179" cx="0" cy="0" r="1" gradientUnits="userSpaceOnUse" gradientTransform="translate(204.431 29.3827) rotate(-157.036) scale(34.2322 56.8454)">
<stop stop-color="#261945"/>
<stop offset="1" stop-color="#261945" stop-opacity="0"/>
</radialGradient>
<radialGradient id="paint13_radial_4_179" cx="0" cy="0" r="1" gradientUnits="userSpaceOnUse" gradientTransform="translate(321.427 126.078) rotate(76.7293) scale(38.7878 64.4103)">
<stop stop-color="#191326"/>
<stop offset="1" stop-color="#191326" stop-opacity="0"/>
</radialGradient>
<linearGradient id="paint14_linear_4_179" x1="176.117" y1="20.835" x2="226.69" y2="149.049" gradientUnits="userSpaceOnUse">
<stop stop-color="#783EFF"/>
<stop offset="0.5" stop-color="#BA16E3"/>
<stop offset="0.791667" stop-color="#D216C2"/>
<stop offset="1" stop-color="#E317AA"/>
<stop offset="1" stop-color="#1BB3F3"/>
</linearGradient>
<radialGradient id="paint15_radial_4_179" cx="0" cy="0" r="1" gradientUnits="userSpaceOnUse" gradientTransform="translate(126.968 32.2318) rotate(-19.3523) scale(77.3832 128.501)">
<stop stop-color="#171225"/>
<stop offset="1" stop-color="#171225" stop-opacity="0"/>
</radialGradient>
<radialGradient id="paint16_radial_4_179" cx="0" cy="0" r="1" gradientUnits="userSpaceOnUse" gradientTransform="translate(14.0681 127.858) rotate(67.4706) scale(52.0529 86.4381)">
<stop stop-color="#191327"/>
<stop offset="1" stop-color="#191327" stop-opacity="0"/>
</radialGradient>
<clipPath id="clip0_4_179">
<rect width="335" height="188.048" fill="white"/>
</clipPath>
</defs>
</svg>
